<?xml version="1.0" standalone="no"?>
<!DOCTYPE svg PUBLIC "-//W3C//DTD SVG 20010904//EN"
 "http://www.w3.org/TR/2001/REC-SVG-20010904/DTD/svg10.dtd">
<svg version="1.0" xmlns="http://www.w3.org/2000/svg"
 width="800.000000pt" height="800.000000pt" viewBox="0 0 800.000000 800.000000"
 preserveAspectRatio="xMidYMid meet">
<metadata>
Created by potrace 1.16, written by Peter Selinger 2001-2019
</metadata>
<g transform="translate(0.000000,800.000000) scale(0.100000,-0.100000)"
fill="#000000" stroke="none">
<path d="M3827 7984 c-3 -3 -57 -10 -119 -14 -460 -33 -1076 -230 -1433 -459
-40 -25 -112 -71 -160 -101 -139 -88 -397 -297 -516 -418 -236 -239 -289 -304
-474 -584 -138 -209 -185 -288 -204 -343 -7 -22 -19 -47 -25 -55 -11 -13 -24
-42 -72 -155 -7 -16 -27 -75 -45 -130 -18 -55 -38 -113 -45 -130 -24 -58 -112
-458 -124 -567 -5 -42 -13 -86 -19 -97 -8 -14 -11 -139 -11 -388 0 -297 3
-376 15 -408 8 -22 14 -62 14 -90 1 -27 8 -84 17 -125 39 -176 105 -439 124
-495 12 -33 27 -79 35 -101 7 -23 18 -50 23 -60 6 -11 39 -84 74 -164 34 -80
75 -163 89 -185 15 -22 41 -69 60 -105 18 -36 62 -105 98 -155 128 -178 183
-251 231 -310 28 -33 67 -82 89 -110 46 -59 214 -222 327 -318 215 -181 497
-368 714 -474 227 -111 383 -172 533 -210 l97 -26 0 -186 c0 -173 2 -195 31
-321 32 -135 69 -230 111 -283 158 -197 299 -305 458 -350 236 -68 348 -74
545 -27 139 34 175 49 280 119 96 64 190 154 259 251 118 163 115 141 116
1040 l0 755 -34 142 c-19 78 -38 148 -42 155 -65 106 -131 181 -211 239 -83
59 -96 65 -218 96 -122 31 -143 33 -344 38 -328 7 -483 41 -731 158 -228 108
-336 185 -510 364 -150 154 -220 255 -311 452 -111 240 -133 320 -151 554 -24
316 25 574 163 862 88 183 161 284 325 449 164 163 222 204 454 316 69 34 132
65 141 70 18 10 233 62 325 79 74 14 415 15 481 1 26 -5 84 -17 128 -26 86
-17 194 -51 210 -65 5 -5 15 -9 23 -9 29 0 291 -139 377 -200 194 -137 395
-373 502 -590 80 -164 107 -236 158 -435 60 -233 58 -228 152 -352 73 -98 104
-129 187 -190 118 -88 166 -114 266 -141 211 -58 286 -61 479 -16 128 30 163
45 277 125 118 82 179 140 256 242 61 81 68 97 115 267 8 30 19 63 24 73 16
29 13 277 -4 333 -9 27 -34 123 -56 214 -49 202 -91 344 -114 387 -9 18 -17
37 -17 43 0 11 -28 75 -73 170 -39 82 -159 293 -215 380 -106 163 -166 250
-172 250 -3 0 -28 30 -55 68 -27 37 -85 103 -129 148 -45 44 -106 107 -137
140 -278 295 -815 640 -1194 766 -66 22 -154 52 -195 68 -154 57 -458 117
-765 150 -106 11 -448 14 -458 4z m421 -539 c114 -8 223 -20 242 -25 19 -6 48
-10 64 -10 60 0 379 -88 440 -122 10 -5 42 -17 70 -25 105 -31 297 -123 448
-215 101 -61 279 -188 368 -263 178 -148 421 -408 519 -554 121 -179 157 -240
239 -404 51 -103 96 -200 98 -215 3 -15 14 -41 25 -58 11 -18 19 -36 17 -41
-1 -4 10 -46 25 -93 14 -47 36 -128 47 -180 12 -52 28 -123 37 -157 14 -59 14
-65 -6 -125 -12 -34 -21 -69 -21 -77 0 -53 -149 -189 -230 -211 -167 -45 -357
43 -426 198 -25 55 -30 75 -55 192 -16 73 -87 289 -105 317 -8 12 -14 28 -14
34 0 25 -87 190 -158 299 -105 161 -197 273 -327 403 -53 53 -206 172 -321
249 -108 73 -361 208 -390 208 -8 0 -34 9 -57 21 -64 31 -297 93 -417 109 -36
5 -81 14 -100 20 -47 14 -450 13 -487 -1 -15 -6 -64 -14 -108 -19 -44 -5 -116
-20 -160 -33 -44 -14 -102 -30 -130 -37 -161 -36 -493 -207 -681 -350 -80 -60
-214 -176 -241 -209 -13 -14 -53 -60 -90 -102 -71 -79 -151 -185 -192 -254
-13 -22 -36 -56 -51 -75 -15 -19 -34 -53 -42 -75 -9 -22 -34 -78 -56 -125 -67
-142 -124 -325 -158 -500 -27 -143 -46 -418 -35 -505 5 -44 13 -114 16 -155 6
-84 20 -169 41 -250 30 -115 98 -313 125 -366 16 -30 29 -59 29 -63 0 -12 114
-212 156 -273 133 -192 364 -435 493 -520 15 -9 44 -32 66 -52 22 -20 58 -47
80 -60 22 -13 73 -42 114 -65 91 -53 313 -148 396 -171 17 -5 55 -16 85 -25
77 -23 173 -44 250 -55 36 -6 72 -13 80 -17 8 -4 125 -9 260 -12 280 -7 306
-13 344 -87 21 -38 21 -53 24 -780 l3 -741 -40 -51 c-46 -58 -134 -120 -189
-133 -20 -5 -83 -9 -139 -9 -87 0 -111 4 -158 24 -66 30 -142 104 -174 169
-29 59 -42 196 -40 397 1 80 1 209 0 288 l-1 142 -32 35 c-32 34 -115 65 -174
65 -12 0 -46 7 -75 16 -30 8 -79 22 -109 30 -188 52 -349 113 -522 200 -59 30
-113 54 -119 54 -16 0 -300 192 -394 266 -142 112 -257 217 -338 309 -165 187
-337 417 -376 502 -6 12 -21 39 -34 60 -60 95 -171 324 -182 377 -2 10 -12 30
-20 43 -9 14 -14 27 -12 30 3 3 -1 24 -10 46 -8 23 -16 50 -18 59 -2 9 -8 25
-13 35 -6 10 -15 41 -21 68 -5 28 -19 93 -31 145 -11 52 -25 133 -30 180 -5
47 -14 105 -19 130 -16 72 -14 585 3 650 7 30 16 87 20 125 3 39 15 113 27
165 11 52 25 118 30 145 6 28 17 64 25 82 7 17 14 38 14 48 0 9 7 29 15 45 9
17 13 30 10 30 -3 0 4 18 15 40 11 22 18 40 15 40 -3 0 6 22 20 50 14 27 26
53 27 57 3 20 114 244 143 288 17 28 42 68 54 89 12 22 42 67 67 100 24 34 67
93 94 131 104 143 352 396 496 504 21 17 59 46 84 65 200 158 509 328 720 396
14 5 50 18 80 30 30 12 78 28 105 35 28 7 92 25 143 39 52 14 128 30 170 36
43 5 106 14 142 19 70 12 248 27 343 29 31 1 151 -5 265 -13z"/>
</g>
</svg>
